# xmcd
#
# Track frame offsets: 
#        150
#        15053
#        31750
#        41946
#        53904
#        65645
#        84764
#        97974
#        110299
#        134396
#        153443
#        168961
#        183708
#        200301
#        210477
#        221942
#        233607
#        252760
#        265972
#        278280
#        302307
#        321576
#
# Disc length: 4520 seconds
#
# Revision: 0
# Processed by: cddbd v1.5.2PL0 Copyright (c) Steve Scherf et al.
# Submitted via: ExactAudioCopy v0.95b3
#
DISCID=2211a616
DTITLE=The Rascals  - Once Upon A Dream' - The Complete Atlantic Disco
DTITLE=graphy (1965-1971) - Disc 04
DYEAR=1900
DGENRE=
TTITLE0=Intro and Easy Rollin' (Mono)
TTITLE1=Rainy Day (Mono)
TTITLE2=Please Love Me (Mono)
TTITLE3=It's Wonderful (Mono)
TTITLE4=I'm Gonna Love You (Mono)
TTITLE5=My Hawaii (Mono)
TTITLE6=My World (Mono)
TTITLE7=Silly Girl (Mono)
TTITLE8=Singin' The Blues Too Long (Mono)
TTITLE9=Sattva (Mono)
TTITLE10=Finale: Once Upon A Dream (Mono)
TTITLE11=Intro - Easy Rollin' [Stereo]
TTITLE12=Rainy Day [Stereo]
TTITLE13=Please Love Me [Stereo]
TTITLE14=Sound Effect - It's Wonderful [Stereo]
TTITLE15=I'm Gonna Love You - Dave and Eddie [Stereo]
TTITLE16=My Hawaii [Stereo]
TTITLE17=My World [Stereo]
TTITLE18=Silly Girl [Stereo]
TTITLE19=Singin' the Blues Too Long [Stereo]
TTITLE20=Bells - Sattva [Stereo]
TTITLE21=Finale: Once Upon a Dream [Stereo]
EXTD=
EXTT0=
EXTT1=
EXTT2=
EXTT3=
EXTT4=
EXTT5=
EXTT6=
EXTT7=
EXTT8=
EXTT9=
EXTT10=
EXTT11=
EXTT12=
EXTT13=
EXTT14=
EXTT15=
EXTT16=
EXTT17=
EXTT18=
EXTT19=
EXTT20=
EXTT21=
PLAYORDER=
